<?xml version="1.0" encoding="UTF-8"?>
<svg width="63px" height="50px" viewBox="0 0 63 50" version="1.1" xmlns="http://www.w3.org/2000/svg" xmlns:xlink="http://www.w3.org/1999/xlink">
    <title>编组</title>
    <g id="页面-1" stroke="none" stroke-width="1" fill="none" fill-rule="evenodd">
        <g id="天府保险通" transform="translate(-95.000000, -2938.000000)" fill="#E5D5B4" fill-rule="nonzero">
            <g id="编组" transform="translate(95.000000, 2938.000000)">
                <path d="M61.6406535,23.2671609 L53.1450368,16.2889819 L53.1450368,4.03355496 C53.1447918,1.9260997 51.3954996,0.21779655 49.237723,0.21779655 C47.0799463,0.21779655 45.3306541,1.9260997 45.3304091,4.03355496 L45.3304091,9.89958673 L34.3229477,0.882470994 C33.5511483,0.251463568 32.5581873,-0.0613765098 31.5543367,0.0101986011 L31.4650267,0.0101986011 C30.4645058,-0.0619832727 29.4747873,0.251097656 28.7075795,0.882470994 L1.38987369,23.2671609 C-0.256180156,24.6252672 -0.470629364,27.0266134 0.909832266,28.6425395 C2.30036706,30.2502058 4.75905212,30.4596538 6.41356291,29.1113859 L31.5096817,8.54756452 L56.6169643,29.1113859 C58.2645812,30.4305151 60.6894189,30.2222607 62.0760399,28.6425395 C63.4611434,27.0361812 63.2671291,24.6408366 61.6406535,23.2671609 Z" id="路径"></path>
                <path d="M8,30.392 L8,45.6571428 C8,48.0556366 10.0092587,50 12.4878049,50 L24.8292683,50 L24.8292683,34.8 L37.1707317,34.8 L37.1707317,50 L49.5121951,50 C51.9907413,50 54,48.0556366 54,45.6571428 L54,29.9794286 L31,12 L8,30.392 Z" id="路径"></path>
            </g>
        </g>
    </g>
</svg>